<?xml version="1.0" encoding="utf-8" standalone="no"?>
<!DOCTYPE svg PUBLIC "-//W3C//DTD SVG 1.1//EN"
  "http://www.w3.org/Graphics/SVG/1.1/DTD/svg11.dtd">
<svg xmlns:xlink="http://www.w3.org/1999/xlink" width="460.8pt" height="345.6pt" viewBox="0 0 460.8 345.6" xmlns="http://www.w3.org/2000/svg" version="1.1">
 <metadata>
  <rdf:RDF xmlns:dc="http://purl.org/dc/elements/1.1/" xmlns:cc="http://creativecommons.org/ns#" xmlns:rdf="http://www.w3.org/1999/02/22-rdf-syntax-ns#">
   <cc:Work>
    <dc:type rdf:resource="http://purl.org/dc/dcmitype/StillImage"/>
    <dc:date>2025-07-21T11:22:33.031076</dc:date>
    <dc:format>image/svg+xml</dc:format>
    <dc:creator>
     <cc:Agent>
      <dc:title>Matplotlib v3.7.1, https://matplotlib.org/</dc:title>
     </cc:Agent>
    </dc:creator>
   </cc:Work>
  </rdf:RDF>
 </metadata>
 <defs>
  <style type="text/css">*{stroke-linejoin: round; stroke-linecap: butt}</style>
 </defs>
 <g id="figure_1">
  <g id="patch_1">
   <path d="M 0 345.6 
L 460.8 345.6 
L 460.8 0 
L 0 0 
z
" style="fill: #ffffff"/>
  </g>
  <g id="axes_1">
   <g id="patch_2">
    <path d="M 57.6 307.584 
L 414.72 307.584 
L 414.72 41.472 
L 57.6 41.472 
z
" style="fill: #ffffff"/>
   </g>
   <g id="matplotlib.axis_1">
    <g id="xtick_1">
     <g id="line2d_1">
      <defs>
       <path id="m9e1657722b" d="M 0 0 
L 0 3.5 
" style="stroke: #000000; stroke-width: 0.8"/>
      </defs>
      <g>
       <use xlink:href="#m9e1657722b" x="73.542633" y="307.584" style="stroke: #000000; stroke-width: 0.8"/>
      </g>
     </g>
     <g id="text_1">
      <!-- 4 -->
      <g transform="translate(69.725133 323.702125) scale(0.12 -0.12)">
       <defs>
        <path id="DejaVuSans-34" d="M 2419 4116 
L 825 1625 
L 2419 1625 
L 2419 4116 
z
M 2253 4666 
L 3047 4666 
L 3047 1625 
L 3713 1625 
L 3713 1100 
L 3047 1100 
L 3047 0 
L 2419 0 
L 2419 1100 
L 313 1100 
L 313 1709 
L 2253 4666 
z
" transform="scale(0.015625)"/>
       </defs>
       <use xlink:href="#DejaVuSans-34"/>
      </g>
     </g>
    </g>
    <g id="xtick_2">
     <g id="line2d_2">
      <g>
       <use xlink:href="#m9e1657722b" x="121.730982" y="307.584" style="stroke: #000000; stroke-width: 0.8"/>
      </g>
     </g>
     <g id="text_2">
      <!-- 6 -->
      <g transform="translate(117.913482 323.702125) scale(0.12 -0.12)">
       <defs>
        <path id="DejaVuSans-36" d="M 2113 2584 
Q 1688 2584 1439 2293 
Q 1191 2003 1191 1497 
Q 1191 994 1439 701 
Q 1688 409 2113 409 
Q 2538 409 2786 701 
Q 3034 994 3034 1497 
Q 3034 2003 2786 2293 
Q 2538 2584 2113 2584 
z
M 3366 4563 
L 3366 3988 
Q 3128 4100 2886 4159 
Q 2644 4219 2406 4219 
Q 1781 4219 1451 3797 
Q 1122 3375 1075 2522 
Q 1259 2794 1537 2939 
Q 1816 3084 2150 3084 
Q 2853 3084 3261 2657 
Q 3669 2231 3669 1497 
Q 3669 778 3244 343 
Q 2819 -91 2113 -91 
Q 1303 -91 875 529 
Q 447 1150 447 2328 
Q 447 3434 972 4092 
Q 1497 4750 2381 4750 
Q 2619 4750 2861 4703 
Q 3103 4656 3366 4563 
z
" transform="scale(0.015625)"/>
       </defs>
       <use xlink:href="#DejaVuSans-36"/>
      </g>
     </g>
    </g>
    <g id="xtick_3">
     <g id="line2d_3">
      <g>
       <use xlink:href="#m9e1657722b" x="169.919332" y="307.584" style="stroke: #000000; stroke-width: 0.8"/>
      </g>
     </g>
     <g id="text_3">
      <!-- 8 -->
      <g transform="translate(166.101832 323.702125) scale(0.12 -0.12)">
       <defs>
        <path id="DejaVuSans-38" d="M 2034 2216 
Q 1584 2216 1326 1975 
Q 1069 1734 1069 1313 
Q 1069 891 1326 650 
Q 1584 409 2034 409 
Q 2484 409 2743 651 
Q 3003 894 3003 1313 
Q 3003 1734 2745 1975 
Q 2488 2216 2034 2216 
z
M 1403 2484 
Q 997 2584 770 2862 
Q 544 3141 544 3541 
Q 544 4100 942 4425 
Q 1341 4750 2034 4750 
Q 2731 4750 3128 4425 
Q 3525 4100 3525 3541 
Q 3525 3141 3298 2862 
Q 3072 2584 2669 2484 
Q 3125 2378 3379 2068 
Q 3634 1759 3634 1313 
Q 3634 634 3220 271 
Q 2806 -91 2034 -91 
Q 1263 -91 848 271 
Q 434 634 434 1313 
Q 434 1759 690 2068 
Q 947 2378 1403 2484 
z
M 1172 3481 
Q 1172 3119 1398 2916 
Q 1625 2713 2034 2713 
Q 2441 2713 2670 2916 
Q 2900 3119 2900 3481 
Q 2900 3844 2670 4047 
Q 2441 4250 2034 4250 
Q 1625 4250 1398 4047 
Q 1172 3844 1172 3481 
z
" transform="scale(0.015625)"/>
       </defs>
       <use xlink:href="#DejaVuSans-38"/>
      </g>
     </g>
    </g>
    <g id="xtick_4">
     <g id="line2d_4">
      <g>
       <use xlink:href="#m9e1657722b" x="218.107681" y="307.584" style="stroke: #000000; stroke-width: 0.8"/>
      </g>
     </g>
     <g id="text_4">
      <!-- 10 -->
      <g transform="translate(210.472681 323.702125) scale(0.12 -0.12)">
       <defs>
        <path id="DejaVuSans-31" d="M 794 531 
L 1825 531 
L 1825 4091 
L 703 3866 
L 703 4441 
L 1819 4666 
L 2450 4666 
L 2450 531 
L 3481 531 
L 3481 0 
L 794 0 
L 794 531 
z
" transform="scale(0.015625)"/>
        <path id="DejaVuSans-30" d="M 2034 4250 
Q 1547 4250 1301 3770 
Q 1056 3291 1056 2328 
Q 1056 1369 1301 889 
Q 1547 409 2034 409 
Q 2525 409 2770 889 
Q 3016 1369 3016 2328 
Q 3016 3291 2770 3770 
Q 2525 4250 2034 4250 
z
M 2034 4750 
Q 2819 4750 3233 4129 
Q 3647 3509 3647 2328 
Q 3647 1150 3233 529 
Q 2819 -91 2034 -91 
Q 1250 -91 836 529 
Q 422 1150 422 2328 
Q 422 3509 836 4129 
Q 1250 4750 2034 4750 
z
" transform="scale(0.015625)"/>
       </defs>
       <use xlink:href="#DejaVuSans-31"/>
       <use xlink:href="#DejaVuSans-30" x="63.623047"/>
      </g>
     </g>
    </g>
    <g id="xtick_5">
     <g id="line2d_5">
      <g>
       <use xlink:href="#m9e1657722b" x="266.29603" y="307.584" style="stroke: #000000; stroke-width: 0.8"/>
      </g>
     </g>
     <g id="text_5">
      <!-- 12 -->
      <g transform="translate(258.66103 323.702125) scale(0.12 -0.12)">
       <defs>
        <path id="DejaVuSans-32" d="M 1228 531 
L 3431 531 
L 3431 0 
L 469 0 
L 469 531 
Q 828 903 1448 1529 
Q 2069 2156 2228 2338 
Q 2531 2678 2651 2914 
Q 2772 3150 2772 3378 
Q 2772 3750 2511 3984 
Q 2250 4219 1831 4219 
Q 1534 4219 1204 4116 
Q 875 4013 500 3803 
L 500 4441 
Q 881 4594 1212 4672 
Q 1544 4750 1819 4750 
Q 2544 4750 2975 4387 
Q 3406 4025 3406 3419 
Q 3406 3131 3298 2873 
Q 3191 2616 2906 2266 
Q 2828 2175 2409 1742 
Q 1991 1309 1228 531 
z
" transform="scale(0.015625)"/>
       </defs>
       <use xlink:href="#DejaVuSans-31"/>
       <use xlink:href="#DejaVuSans-32" x="63.623047"/>
      </g>
     </g>
    </g>
    <g id="xtick_6">
     <g id="line2d_6">
      <g>
       <use xlink:href="#m9e1657722b" x="314.484379" y="307.584" style="stroke: #000000; stroke-width: 0.8"/>
      </g>
     </g>
     <g id="text_6">
      <!-- 14 -->
      <g transform="translate(306.849379 323.702125) scale(0.12 -0.12)">
       <use xlink:href="#DejaVuSans-31"/>
       <use xlink:href="#DejaVuSans-34" x="63.623047"/>
      </g>
     </g>
    </g>
    <g id="xtick_7">
     <g id="line2d_7">
      <g>
       <use xlink:href="#m9e1657722b" x="362.672728" y="307.584" style="stroke: #000000; stroke-width: 0.8"/>
      </g>
     </g>
     <g id="text_7">
      <!-- 16 -->
      <g transform="translate(355.037728 323.702125) scale(0.12 -0.12)">
       <use xlink:href="#DejaVuSans-31"/>
       <use xlink:href="#DejaVuSans-36" x="63.623047"/>
      </g>
     </g>
    </g>
    <g id="xtick_8">
     <g id="line2d_8">
      <g>
       <use xlink:href="#m9e1657722b" x="410.861077" y="307.584" style="stroke: #000000; stroke-width: 0.8"/>
      </g>
     </g>
     <g id="text_8">
      <!-- 18 -->
      <g transform="translate(403.226077 323.702125) scale(0.12 -0.12)">
       <use xlink:href="#DejaVuSans-31"/>
       <use xlink:href="#DejaVuSans-38" x="63.623047"/>
      </g>
     </g>
    </g>
    <g id="text_9">
     <!-- 2θ° -->
     <g transform="translate(225.67125 339.315875) scale(0.12 -0.12)">
      <defs>
       <path id="DejaVuSans-3b8" d="M 2953 2219 
L 963 2219 
Q 1009 1284 1225 888 
Q 1494 400 1959 400 
Q 2428 400 2688 891 
Q 2916 1322 2953 2219 
z
M 2944 2750 
Q 2856 3638 2688 3950 
Q 2419 4444 1959 4444 
Q 1481 4444 1228 3956 
Q 1028 3563 969 2750 
L 2944 2750 
z
M 1959 4913 
Q 2709 4913 3138 4250 
Q 3566 3591 3566 2422 
Q 3566 1256 3138 594 
Q 2709 -72 1959 -72 
Q 1206 -72 781 594 
Q 353 1256 353 2422 
Q 353 3591 781 4250 
Q 1206 4913 1959 4913 
z
" transform="scale(0.015625)"/>
       <path id="DejaVuSans-b0" d="M 1600 4347 
Q 1350 4347 1178 4173 
Q 1006 4000 1006 3750 
Q 1006 3503 1178 3333 
Q 1350 3163 1600 3163 
Q 1850 3163 2022 3333 
Q 2194 3503 2194 3750 
Q 2194 3997 2020 4172 
Q 1847 4347 1600 4347 
z
M 1600 4750 
Q 1800 4750 1984 4673 
Q 2169 4597 2303 4453 
Q 2447 4313 2519 4134 
Q 2591 3956 2591 3750 
Q 2591 3338 2302 3052 
Q 2013 2766 1594 2766 
Q 1172 2766 890 3047 
Q 609 3328 609 3750 
Q 609 4169 896 4459 
Q 1184 4750 1600 4750 
z
" transform="scale(0.015625)"/>
      </defs>
      <use xlink:href="#DejaVuSans-32"/>
      <use xlink:href="#DejaVuSans-3b8" x="63.623047"/>
      <use xlink:href="#DejaVuSans-b0" x="124.804688"/>
     </g>
    </g>
   </g>
   <g id="matplotlib.axis_2">
    <g id="ytick_1">
     <g id="line2d_9">
      <defs>
       <path id="m9da15c1793" d="M 0 0 
L -3.5 0 
" style="stroke: #000000; stroke-width: 0.8"/>
      </defs>
      <g>
       <use xlink:href="#m9da15c1793" x="57.6" y="295.488" style="stroke: #000000; stroke-width: 0.8"/>
      </g>
     </g>
     <g id="text_10">
      <!-- 0 -->
      <g transform="translate(42.965 300.047062) scale(0.12 -0.12)">
       <use xlink:href="#DejaVuSans-30"/>
      </g>
     </g>
    </g>
    <g id="ytick_2">
     <g id="line2d_10">
      <g>
       <use xlink:href="#m9da15c1793" x="57.6" y="258.803537" style="stroke: #000000; stroke-width: 0.8"/>
      </g>
     </g>
     <g id="text_11">
      <!-- 500 -->
      <g transform="translate(27.695 263.362599) scale(0.12 -0.12)">
       <defs>
        <path id="DejaVuSans-35" d="M 691 4666 
L 3169 4666 
L 3169 4134 
L 1269 4134 
L 1269 2991 
Q 1406 3038 1543 3061 
Q 1681 3084 1819 3084 
Q 2600 3084 3056 2656 
Q 3513 2228 3513 1497 
Q 3513 744 3044 326 
Q 2575 -91 1722 -91 
Q 1428 -91 1123 -41 
Q 819 9 494 109 
L 494 744 
Q 775 591 1075 516 
Q 1375 441 1709 441 
Q 2250 441 2565 725 
Q 2881 1009 2881 1497 
Q 2881 1984 2565 2268 
Q 2250 2553 1709 2553 
Q 1456 2553 1204 2497 
Q 953 2441 691 2322 
L 691 4666 
z
" transform="scale(0.015625)"/>
       </defs>
       <use xlink:href="#DejaVuSans-35"/>
       <use xlink:href="#DejaVuSans-30" x="63.623047"/>
       <use xlink:href="#DejaVuSans-30" x="127.246094"/>
      </g>
     </g>
    </g>
    <g id="ytick_3">
     <g id="line2d_11">
      <g>
       <use xlink:href="#m9da15c1793" x="57.6" y="222.119073" style="stroke: #000000; stroke-width: 0.8"/>
      </g>
     </g>
     <g id="text_12">
      <!-- 1000 -->
      <g transform="translate(20.06 226.678136) scale(0.12 -0.12)">
       <use xlink:href="#DejaVuSans-31"/>
       <use xlink:href="#DejaVuSans-30" x="63.623047"/>
       <use xlink:href="#DejaVuSans-30" x="127.246094"/>
       <use xlink:href="#DejaVuSans-30" x="190.869141"/>
      </g>
     </g>
    </g>
    <g id="ytick_4">
     <g id="line2d_12">
      <g>
       <use xlink:href="#m9da15c1793" x="57.6" y="185.43461" style="stroke: #000000; stroke-width: 0.8"/>
      </g>
     </g>
     <g id="text_13">
      <!-- 1500 -->
      <g transform="translate(20.06 189.993672) scale(0.12 -0.12)">
       <use xlink:href="#DejaVuSans-31"/>
       <use xlink:href="#DejaVuSans-35" x="63.623047"/>
       <use xlink:href="#DejaVuSans-30" x="127.246094"/>
       <use xlink:href="#DejaVuSans-30" x="190.869141"/>
      </g>
     </g>
    </g>
    <g id="ytick_5">
     <g id="line2d_13">
      <g>
       <use xlink:href="#m9da15c1793" x="57.6" y="148.750146" style="stroke: #000000; stroke-width: 0.8"/>
      </g>
     </g>
     <g id="text_14">
      <!-- 2000 -->
      <g transform="translate(20.06 153.309209) scale(0.12 -0.12)">
       <use xlink:href="#DejaVuSans-32"/>
       <use xlink:href="#DejaVuSans-30" x="63.623047"/>
       <use xlink:href="#DejaVuSans-30" x="127.246094"/>
       <use xlink:href="#DejaVuSans-30" x="190.869141"/>
      </g>
     </g>
    </g>
    <g id="ytick_6">
     <g id="line2d_14">
      <g>
       <use xlink:href="#m9da15c1793" x="57.6" y="112.065683" style="stroke: #000000; stroke-width: 0.8"/>
      </g>
     </g>
     <g id="text_15">
      <!-- 2500 -->
      <g transform="translate(20.06 116.624745) scale(0.12 -0.12)">
       <use xlink:href="#DejaVuSans-32"/>
       <use xlink:href="#DejaVuSans-35" x="63.623047"/>
       <use xlink:href="#DejaVuSans-30" x="127.246094"/>
       <use xlink:href="#DejaVuSans-30" x="190.869141"/>
      </g>
     </g>
    </g>
    <g id="ytick_7">
     <g id="line2d_15">
      <g>
       <use xlink:href="#m9da15c1793" x="57.6" y="75.381219" style="stroke: #000000; stroke-width: 0.8"/>
      </g>
     </g>
     <g id="text_16">
      <!-- 3000 -->
      <g transform="translate(20.06 79.940282) scale(0.12 -0.12)">
       <defs>
        <path id="DejaVuSans-33" d="M 2597 2516 
Q 3050 2419 3304 2112 
Q 3559 1806 3559 1356 
Q 3559 666 3084 287 
Q 2609 -91 1734 -91 
Q 1441 -91 1130 -33 
Q 819 25 488 141 
L 488 750 
Q 750 597 1062 519 
Q 1375 441 1716 441 
Q 2309 441 2620 675 
Q 2931 909 2931 1356 
Q 2931 1769 2642 2001 
Q 2353 2234 1838 2234 
L 1294 2234 
L 1294 2753 
L 1863 2753 
Q 2328 2753 2575 2939 
Q 2822 3125 2822 3475 
Q 2822 3834 2567 4026 
Q 2313 4219 1838 4219 
Q 1578 4219 1281 4162 
Q 984 4106 628 3988 
L 628 4550 
Q 988 4650 1302 4700 
Q 1616 4750 1894 4750 
Q 2613 4750 3031 4423 
Q 3450 4097 3450 3541 
Q 3450 3153 3228 2886 
Q 3006 2619 2597 2516 
z
" transform="scale(0.015625)"/>
       </defs>
       <use xlink:href="#DejaVuSans-33"/>
       <use xlink:href="#DejaVuSans-30" x="63.623047"/>
       <use xlink:href="#DejaVuSans-30" x="127.246094"/>
       <use xlink:href="#DejaVuSans-30" x="190.869141"/>
      </g>
     </g>
    </g>
    <g id="text_17">
     <!-- I (a.u.) -->
     <g transform="translate(13.564375 194.179875) rotate(-90) scale(0.12 -0.12)">
      <defs>
       <path id="DejaVuSans-49" d="M 628 4666 
L 1259 4666 
L 1259 0 
L 628 0 
L 628 4666 
z
" transform="scale(0.015625)"/>
       <path id="DejaVuSans-20" transform="scale(0.015625)"/>
       <path id="DejaVuSans-28" d="M 1984 4856 
Q 1566 4138 1362 3434 
Q 1159 2731 1159 2009 
Q 1159 1288 1364 580 
Q 1569 -128 1984 -844 
L 1484 -844 
Q 1016 -109 783 600 
Q 550 1309 550 2009 
Q 550 2706 781 3412 
Q 1013 4119 1484 4856 
L 1984 4856 
z
" transform="scale(0.015625)"/>
       <path id="DejaVuSans-61" d="M 2194 1759 
Q 1497 1759 1228 1600 
Q 959 1441 959 1056 
Q 959 750 1161 570 
Q 1363 391 1709 391 
Q 2188 391 2477 730 
Q 2766 1069 2766 1631 
L 2766 1759 
L 2194 1759 
z
M 3341 1997 
L 3341 0 
L 2766 0 
L 2766 531 
Q 2569 213 2275 61 
Q 1981 -91 1556 -91 
Q 1019 -91 701 211 
Q 384 513 384 1019 
Q 384 1609 779 1909 
Q 1175 2209 1959 2209 
L 2766 2209 
L 2766 2266 
Q 2766 2663 2505 2880 
Q 2244 3097 1772 3097 
Q 1472 3097 1187 3025 
Q 903 2953 641 2809 
L 641 3341 
Q 956 3463 1253 3523 
Q 1550 3584 1831 3584 
Q 2591 3584 2966 3190 
Q 3341 2797 3341 1997 
z
" transform="scale(0.015625)"/>
       <path id="DejaVuSans-2e" d="M 684 794 
L 1344 794 
L 1344 0 
L 684 0 
L 684 794 
z
" transform="scale(0.015625)"/>
       <path id="DejaVuSans-75" d="M 544 1381 
L 544 3500 
L 1119 3500 
L 1119 1403 
Q 1119 906 1312 657 
Q 1506 409 1894 409 
Q 2359 409 2629 706 
Q 2900 1003 2900 1516 
L 2900 3500 
L 3475 3500 
L 3475 0 
L 2900 0 
L 2900 538 
Q 2691 219 2414 64 
Q 2138 -91 1772 -91 
Q 1169 -91 856 284 
Q 544 659 544 1381 
z
M 1991 3584 
L 1991 3584 
z
" transform="scale(0.015625)"/>
       <path id="DejaVuSans-29" d="M 513 4856 
L 1013 4856 
Q 1481 4119 1714 3412 
Q 1947 2706 1947 2009 
Q 1947 1309 1714 600 
Q 1481 -109 1013 -844 
L 513 -844 
Q 928 -128 1133 580 
Q 1338 1288 1338 2009 
Q 1338 2731 1133 3434 
Q 928 4138 513 4856 
z
" transform="scale(0.015625)"/>
      </defs>
      <use xlink:href="#DejaVuSans-49"/>
      <use xlink:href="#DejaVuSans-20" x="29.492188"/>
      <use xlink:href="#DejaVuSans-28" x="61.279297"/>
      <use xlink:href="#DejaVuSans-61" x="100.292969"/>
      <use xlink:href="#DejaVuSans-2e" x="161.572266"/>
      <use xlink:href="#DejaVuSans-75" x="193.359375"/>
      <use xlink:href="#DejaVuSans-2e" x="256.738281"/>
      <use xlink:href="#DejaVuSans-29" x="288.525391"/>
     </g>
    </g>
   </g>
   <g id="line2d_16">
    <path d="M 73.832727 263.802552 
L 75.04876 264.033971 
L 76.264552 264.557253 
L 78.696377 263.442826 
L 79.91241 263.354978 
L 81.128443 264.166221 
L 82.344235 263.793602 
L 83.560268 263.647542 
L 84.77606 264.084093 
L 85.992093 263.875489 
L 87.208126 263.974385 
L 88.423918 263.907519 
L 92.071776 264.283833 
L 93.287569 263.861787 
L 96.935427 263.809049 
L 98.15146 263.583377 
L 99.367252 263.823484 
L 100.583285 263.256375 
L 104.231143 263.227109 
L 105.446935 263.565911 
L 106.662968 263.414915 
L 107.879001 262.824378 
L 109.094793 262.914676 
L 110.310826 262.115332 
L 112.742651 261.373861 
L 113.958443 261.575823 
L 115.174476 261.258025 
L 116.390509 260.752117 
L 117.606301 260.586644 
L 118.822334 260.245097 
L 120.038126 259.454472 
L 122.470192 257.697705 
L 123.685984 257.297182 
L 124.902017 255.990515 
L 126.117809 254.295732 
L 127.333842 252.30164 
L 129.765667 246.298158 
L 130.9817 242.293057 
L 132.197492 235.468171 
L 133.413525 227.191773 
L 134.629558 218.033968 
L 135.84535 210.002032 
L 137.061383 199.595505 
L 138.277175 193.626809 
L 139.493208 190.926375 
L 140.709241 191.706409 
L 141.925033 195.991418 
L 143.141066 201.770018 
L 145.572891 219.136284 
L 146.788924 226.039063 
L 148.004716 231.681328 
L 149.220749 236.225866 
L 150.436541 240.210608 
L 151.652574 242.191475 
L 155.300432 246.375364 
L 156.516224 246.285333 
L 157.732257 247.600819 
L 158.948049 247.87629 
L 160.164082 247.771816 
L 161.380115 248.511382 
L 162.595907 248.608618 
L 163.81194 248.005531 
L 165.027732 248.399874 
L 166.243765 249.239152 
L 167.459798 249.287599 
L 168.67559 248.95165 
L 171.107415 249.273484 
L 172.323448 249.755692 
L 174.755273 250.163867 
L 175.971306 250.676066 
L 177.187098 250.922307 
L 178.403131 251.327284 
L 179.618923 251.052937 
L 180.834956 251.512155 
L 182.050989 251.467634 
L 183.266781 251.810951 
L 184.482814 252.445591 
L 185.698606 252.216901 
L 186.914639 252.992911 
L 188.130672 252.976904 
L 189.346465 253.332976 
L 190.562498 253.485091 
L 191.77829 253.936842 
L 192.994323 253.817309 
L 195.426148 254.822272 
L 196.642181 254.965542 
L 197.857973 254.767461 
L 199.074006 255.171516 
L 201.505831 254.981167 
L 202.721864 255.208872 
L 203.937656 255.255123 
L 205.153689 255.098991 
L 206.369722 255.395102 
L 208.801547 255.67997 
L 210.017339 255.251398 
L 211.233372 255.29355 
L 212.449164 255.912079 
L 213.665197 255.652899 
L 214.88123 255.603979 
L 217.313055 255.871914 
L 218.528847 255.648912 
L 219.74488 255.723012 
L 222.176705 255.556696 
L 223.392738 254.999111 
L 224.60853 255.151905 
L 225.824563 254.723188 
L 227.040596 254.721997 
L 228.256388 254.598746 
L 229.472421 254.179523 
L 230.688213 253.896937 
L 231.904246 253.425066 
L 234.336071 252.695937 
L 235.552104 251.973226 
L 236.767896 252.023611 
L 237.983929 251.22778 
L 240.415754 249.895751 
L 241.631787 249.003705 
L 242.847579 248.27321 
L 244.063612 246.953784 
L 245.279404 245.277181 
L 247.71147 242.429366 
L 248.927262 240.354891 
L 250.143295 237.575169 
L 252.57512 230.68227 
L 253.791153 226.558376 
L 257.43877 218.522429 
L 258.654803 217.068783 
L 259.870836 215.943922 
L 261.086628 217.054148 
L 262.302661 218.593648 
L 263.518453 220.40511 
L 264.734486 223.396596 
L 265.950278 225.981043 
L 268.382344 229.97846 
L 269.598136 231.405121 
L 272.029961 232.182895 
L 273.245994 232.303521 
L 274.462027 232.72467 
L 275.677819 232.867418 
L 276.893852 232.273057 
L 279.325677 231.84057 
L 280.54171 230.428975 
L 281.757502 230.415179 
L 282.973535 228.943191 
L 284.189328 227.857844 
L 285.405361 226.5143 
L 286.621394 224.179791 
L 287.837186 222.638807 
L 289.053219 219.045957 
L 290.269011 216.396516 
L 291.485044 212.144465 
L 292.700836 206.52966 
L 295.132902 192.14979 
L 296.348694 183.431029 
L 298.78076 162.835134 
L 299.996552 151.802228 
L 301.212585 136.497092 
L 302.428377 119.209274 
L 303.64441 98.748822 
L 306.076235 66.53389 
L 307.292268 57.327179 
L 308.50806 53.815306 
L 309.724093 61.785433 
L 310.939885 73.817172 
L 312.155918 93.467617 
L 315.803776 162.978375 
L 317.019568 182.251734 
L 318.235601 197.038614 
L 319.451634 208.698235 
L 320.667426 219.019061 
L 321.883459 226.487094 
L 323.099251 231.806945 
L 324.315284 236.095707 
L 325.531317 239.957525 
L 329.178934 246.39407 
L 330.394967 248.077826 
L 331.610759 249.530117 
L 335.258617 252.502182 
L 336.47465 253.225059 
L 337.690442 253.65383 
L 338.906475 254.507099 
L 340.122508 255.510188 
L 344.986158 257.577421 
L 346.202191 258.315231 
L 347.417983 258.740175 
L 349.849808 259.430852 
L 351.065841 260.054571 
L 352.281633 260.066783 
L 357.145524 261.394183 
L 358.361316 261.540486 
L 359.577349 262.035302 
L 360.793382 262.275596 
L 363.225207 262.40498 
L 364.440999 262.665652 
L 365.657032 262.728715 
L 366.873065 263.168703 
L 369.30489 262.696311 
L 371.736715 262.251211 
L 372.952748 262.660667 
L 374.16854 262.791253 
L 375.384573 262.24825 
L 376.600366 262.419967 
L 377.816399 262.432086 
L 379.032431 262.167628 
L 380.248224 262.155177 
L 381.464257 262.520331 
L 382.680049 263.145378 
L 383.896082 263.151777 
L 385.111874 263.575675 
L 386.327907 264.233426 
L 387.54394 265.156057 
L 388.759732 265.496685 
L 389.975765 266.192481 
L 392.40759 267.284263 
L 393.623623 268.029303 
L 394.839415 268.45443 
L 396.055448 269.017103 
L 397.27124 269.042812 
L 398.487273 269.360641 
L 398.487273 269.360641 
" clip-path="url(#p938fb3fabf)" style="fill: none; stroke: #1f77b4; stroke-width: 1.5; stroke-linecap: square"/>
   </g>
   <g id="line2d_17">
    <path d="M 73.832727 263.802552 
L 75.04876 263.442783 
L 77.480585 263.123034 
L 78.696377 263.414381 
L 79.91241 263.354978 
L 81.128443 263.009655 
L 82.344235 263.06601 
L 83.560268 263.335372 
L 84.77606 263.175348 
L 85.992093 263.489291 
L 87.208126 263.628931 
L 88.423918 263.907519 
L 92.071776 264.283833 
L 93.287569 263.971557 
L 96.935427 264.15491 
L 100.583285 264.08102 
L 103.01511 263.854399 
L 106.662968 263.414915 
L 107.879001 262.931559 
L 109.094793 262.914676 
L 110.310826 262.23356 
L 112.742651 261.384858 
L 113.958443 261.416075 
L 117.606301 259.777623 
L 120.038126 258.505925 
L 122.470192 257.002669 
L 123.685984 256.078865 
L 124.902017 254.937517 
L 126.117809 253.445356 
L 127.333842 251.412622 
L 128.549875 248.601122 
L 129.765667 244.752428 
L 130.9817 239.639442 
L 132.197492 233.146482 
L 133.413525 225.335804 
L 137.061383 198.521137 
L 138.277175 191.895888 
L 139.493208 189.351536 
L 140.709241 191.706409 
L 141.925033 197.542979 
L 145.572891 221.951415 
L 146.788924 228.786833 
L 148.004716 234.296514 
L 149.220749 238.452511 
L 150.436541 241.395043 
L 151.652574 243.363004 
L 152.868366 244.616992 
L 154.084399 245.392002 
L 155.300432 246.375364 
L 156.516224 246.285333 
L 157.732257 246.914453 
L 161.380115 247.412181 
L 162.595907 247.541916 
L 165.027732 248.027374 
L 166.243765 247.841343 
L 167.459798 248.176397 
L 168.67559 248.713882 
L 179.618923 251.052937 
L 180.834956 251.503558 
L 182.050989 251.467634 
L 183.266781 251.810951 
L 184.482814 252.334174 
L 185.698606 252.216901 
L 186.914639 252.863335 
L 188.130672 252.976904 
L 189.346465 253.332976 
L 190.562498 253.485091 
L 191.77829 253.891712 
L 192.994323 253.817309 
L 194.210356 254.289987 
L 195.426148 254.265291 
L 200.290039 255.074311 
L 201.505831 254.981167 
L 202.721864 255.208872 
L 203.937656 255.255123 
L 205.153689 255.098991 
L 206.369722 255.395102 
L 208.801547 255.67997 
L 210.017339 255.251398 
L 212.449164 255.420965 
L 213.665197 255.57348 
L 214.88123 255.477458 
L 217.313055 254.803863 
L 218.528847 254.765769 
L 220.960913 254.315516 
L 224.60853 253.657055 
L 228.256388 252.811706 
L 231.904246 251.776221 
L 235.552104 250.681019 
L 236.767896 250.088145 
L 239.199721 249.396907 
L 240.415754 249.052135 
L 242.847579 247.765592 
L 244.063612 246.953784 
L 245.279404 245.458898 
L 246.495437 244.193317 
L 247.71147 242.550212 
L 248.927262 240.425081 
L 250.143295 237.739033 
L 251.359087 234.478101 
L 256.222978 219.682099 
L 257.43877 217.112595 
L 258.654803 215.872682 
L 259.870836 215.943922 
L 261.086628 217.054148 
L 262.302661 219.321459 
L 264.734486 224.558818 
L 265.950278 226.80832 
L 267.166311 228.54439 
L 268.382344 229.97846 
L 269.598136 230.866579 
L 270.814169 231.071851 
L 272.029961 230.948378 
L 273.245994 230.59797 
L 274.462027 230.102707 
L 275.677819 229.269847 
L 276.893852 228.649126 
L 278.109644 227.729155 
L 279.325677 227.059955 
L 280.54171 226.887086 
L 281.757502 226.094701 
L 282.973535 225.448121 
L 285.405361 223.721473 
L 286.621394 222.601191 
L 287.837186 221.168882 
L 289.053219 219.045957 
L 290.269011 216.396516 
L 291.485044 212.787516 
L 292.700836 208.274632 
L 293.916869 202.452414 
L 295.132902 195.1134 
L 296.348694 186.037258 
L 297.564727 174.948962 
L 298.78076 162.071469 
L 302.428377 114.29319 
L 304.860202 88.722439 
L 307.292268 62.564891 
L 308.50806 53.568 
L 309.724093 53.77073 
L 310.939885 67.276193 
L 312.155918 90.354462 
L 314.587743 141.859898 
L 315.803776 164.848427 
L 317.019568 184.204063 
L 318.235601 199.6109 
L 319.451634 211.257087 
L 320.667426 219.696565 
L 321.883459 226.165996 
L 323.099251 230.36321 
L 324.315284 233.402467 
L 325.531317 235.728639 
L 326.747109 237.637964 
L 327.963142 239.311353 
L 329.178934 240.339827 
L 332.826792 244.547314 
L 336.47465 248.366641 
L 340.122508 251.804553 
L 346.202191 256.929257 
L 347.417983 257.769289 
L 349.849808 259.092699 
L 351.065841 259.654004 
L 353.497666 260.399677 
L 354.713699 260.617646 
L 358.361316 261.540486 
L 359.577349 261.741571 
L 362.009174 261.67035 
L 363.225207 261.518458 
L 364.440999 261.220199 
L 370.520682 260.671581 
L 374.16854 260.474965 
L 376.600366 260.557084 
L 379.032431 260.888675 
L 381.464257 261.517496 
L 382.680049 261.950253 
L 385.111874 263.468839 
L 386.327907 264.089537 
L 387.54394 264.544373 
L 388.759732 265.496685 
L 389.975765 266.192481 
L 392.40759 267.284263 
L 393.623623 268.029303 
L 394.839415 268.433221 
L 397.27124 267.827225 
L 398.487273 267.128471 
L 398.487273 267.128471 
" clip-path="url(#p938fb3fabf)" style="fill: none; stroke: #ff7f0e; stroke-width: 1.5; stroke-linecap: square"/>
   </g>
   <g id="line2d_18">
    <path d="M 73.832727 295.407536 
L 103.01511 295.229371 
L 113.958443 294.966941 
L 118.822334 294.693996 
L 121.254159 294.42791 
L 122.470192 294.203569 
L 123.685984 293.855132 
L 124.902017 293.29369 
L 126.117809 292.382721 
L 127.333842 290.929723 
L 128.549875 288.693493 
L 129.765667 285.412685 
L 130.9817 280.857734 
L 132.197492 274.910171 
L 133.413525 267.630041 
L 137.061383 242.295217 
L 138.277175 236.119482 
L 139.493208 234.000076 
L 140.709241 236.848926 
L 141.925033 243.471242 
L 145.572891 268.821358 
L 146.788924 275.910786 
L 148.004716 281.643826 
L 149.220749 285.99249 
L 150.436541 289.096952 
L 151.652574 291.196364 
L 152.868366 292.551616 
L 154.084399 293.398237 
L 155.300432 293.919552 
L 157.732257 294.455024 
L 161.380115 294.79395 
L 167.459798 295.057448 
L 178.403131 295.262493 
L 200.290039 295.394767 
L 261.086628 295.464563 
L 398.487273 295.482824 
L 398.487273 295.482824 
" clip-path="url(#p938fb3fabf)" style="fill: none; stroke: #2ca02c; stroke-width: 2; stroke-linecap: square"/>
   </g>
   <g id="line2d_19">
    <path d="M 73.832727 295.484042 
L 224.60853 295.373731 
L 237.983929 295.184292 
L 241.631787 294.973869 
L 244.063612 294.546088 
L 245.279404 294.110397 
L 246.495437 293.417848 
L 247.71147 292.364008 
L 248.927262 290.843723 
L 250.143295 288.777756 
L 251.359087 286.151263 
L 253.791153 279.667953 
L 255.006945 276.347373 
L 256.222978 273.514342 
L 257.43877 271.640277 
L 258.654803 271.105482 
L 259.870836 272.031985 
L 261.086628 274.212544 
L 262.302661 277.225671 
L 264.734486 283.932344 
L 265.950278 286.921303 
L 267.166311 289.398617 
L 268.382344 291.310703 
L 269.598136 292.693964 
L 270.814169 293.638277 
L 272.029961 294.250744 
L 273.245994 294.632515 
L 275.677819 295.005889 
L 279.325677 295.194536 
L 289.053219 295.34852 
L 313.371951 295.443658 
L 398.487273 295.48112 
L 398.487273 295.48112 
" clip-path="url(#p938fb3fabf)" style="fill: none; stroke: #d62728; stroke-width: 2; stroke-linecap: square"/>
   </g>
   <g id="line2d_20">
    <path d="M 73.832727 295.479967 
L 245.279404 295.359312 
L 267.166311 295.151075 
L 276.893852 294.848576 
L 281.757502 294.4728 
L 284.189328 294.032821 
L 285.405361 293.63931 
L 286.621394 293.034577 
L 287.837186 292.107301 
L 289.053219 290.710423 
L 290.269011 288.668811 
L 291.485044 285.79441 
L 292.700836 281.918892 
L 293.916869 276.924908 
L 295.132902 270.782453 
L 296.348694 263.560827 
L 298.78076 246.647493 
L 299.996552 237.954487 
L 301.212585 231.168824 
L 302.428377 229.240409 
L 303.64441 233.33449 
L 304.860202 241.158503 
L 307.292268 258.599648 
L 308.50806 266.417031 
L 309.724093 273.244486 
L 310.939885 278.953101 
L 312.155918 283.514718 
L 313.371951 286.993847 
L 314.587743 289.530515 
L 315.803776 291.306015 
L 317.019568 292.505328 
L 318.235601 293.295048 
L 319.451634 293.808464 
L 321.883459 294.368949 
L 325.531317 294.734369 
L 331.610759 295.012652 
L 342.554333 295.233287 
L 363.225207 295.375983 
L 398.487273 295.442885 
L 398.487273 295.442885 
" clip-path="url(#p938fb3fabf)" style="fill: none; stroke: #9467bd; stroke-width: 2; stroke-linecap: square"/>
   </g>
   <g id="line2d_21">
    <path d="M 73.832727 295.472858 
L 233.120279 295.344789 
L 261.086628 295.134257 
L 273.245994 294.862579 
L 280.54171 294.51762 
L 285.405361 294.102145 
L 289.053219 293.578392 
L 291.485044 292.98665 
L 292.700836 292.516326 
L 293.916869 291.808605 
L 295.132902 290.684263 
L 296.348694 288.85208 
L 297.564727 285.877328 
L 298.78076 281.179777 
L 299.996552 274.081785 
L 301.212585 263.920221 
L 302.428377 250.238444 
L 303.64441 232.968004 
L 304.860202 212.601008 
L 307.292268 168.119993 
L 308.50806 150.271829 
L 309.724093 143.06756 
L 310.939885 150.231075 
L 312.155918 168.061557 
L 315.803776 232.915039 
L 317.019568 250.192023 
L 318.235601 263.887034 
L 319.451634 274.05794 
L 320.667426 281.163613 
L 321.883459 285.866904 
L 323.099251 288.845138 
L 324.315284 290.680296 
L 325.531317 291.806151 
L 326.747109 292.514629 
L 327.963142 292.985558 
L 330.394967 293.577755 
L 334.042825 294.101767 
L 338.906475 294.517399 
L 346.202191 294.862464 
L 357.145524 295.115967 
L 376.600366 295.300247 
L 398.487273 295.38125 
L 398.487273 295.38125 
" clip-path="url(#p938fb3fabf)" style="fill: none; stroke: #8c564b; stroke-width: 2; stroke-linecap: square"/>
   </g>
   <g id="line2d_22">
    <path d="M 73.832727 293.115549 
L 81.128443 292.225157 
L 88.423918 291.118315 
L 95.719634 289.789405 
L 103.01511 288.251285 
L 111.526618 286.240439 
L 138.277175 279.69501 
L 144.356858 278.518072 
L 150.436541 277.585352 
L 155.300432 277.046935 
L 160.164082 276.712021 
L 165.027732 276.589731 
L 169.891623 276.680375 
L 174.755273 276.974623 
L 180.834956 277.598221 
L 186.914639 278.448451 
L 197.857973 280.263929 
L 205.153689 281.396929 
L 210.017339 281.977804 
L 214.88123 282.329326 
L 218.528847 282.395961 
L 222.176705 282.259234 
L 225.824563 281.891068 
L 229.472421 281.267733 
L 233.120279 280.371439 
L 236.767896 279.192057 
L 240.415754 277.728367 
L 244.063612 275.989913 
L 247.71147 273.997774 
L 251.359087 271.785382 
L 256.222978 268.57273 
L 270.814169 258.60471 
L 274.462027 256.44259 
L 278.109644 254.571208 
L 280.54171 253.52013 
L 282.973535 252.648137 
L 285.405361 251.970757 
L 287.837186 251.500623 
L 290.269011 251.247054 
L 292.700836 251.215835 
L 295.132902 251.409114 
L 297.564727 251.825271 
L 299.996552 252.45909 
L 302.428377 253.301864 
L 304.860202 254.341641 
L 307.292268 255.563683 
L 310.939885 257.699358 
L 314.587743 260.138346 
L 319.451634 263.733908 
L 326.747109 269.495189 
L 334.042825 275.193409 
L 338.906475 278.726221 
L 343.770125 281.931475 
L 347.417983 284.080428 
L 351.065841 285.980268 
L 354.713699 287.575905 
L 357.145524 288.413334 
L 359.577349 289.003691 
L 362.009174 289.280482 
L 364.440999 289.197847 
L 366.873065 288.772519 
L 372.952748 287.208391 
L 374.16854 287.054414 
L 375.384573 287.022491 
L 376.600366 287.129226 
L 377.816399 287.380473 
L 379.032431 287.770645 
L 381.464257 288.894083 
L 388.759732 292.896658 
L 391.191557 293.818765 
L 393.623623 294.448737 
L 396.055448 294.84289 
L 398.487273 295.07511 
L 398.487273 295.07511 
" clip-path="url(#p938fb3fabf)" style="fill: none; stroke-dasharray: 9.25,4; stroke-dashoffset: 0; stroke: #000000; stroke-width: 2.5"/>
   </g>
   <g id="line2d_23">
    <path d="M 73.832727 293.115549 
L 81.128443 292.225157 
L 88.423918 291.118315 
L 95.719634 289.789406 
L 103.01511 288.25129 
L 111.526618 286.240459 
L 138.277175 279.696129 
L 144.356858 278.520608 
L 150.436541 277.590914 
L 155.300432 277.057116 
L 160.164082 276.730268 
L 165.027732 276.621751 
L 169.891623 276.735394 
L 174.755273 277.067187 
L 179.618923 277.60555 
L 185.698606 278.540263 
L 191.77829 279.719798 
L 199.074006 281.375394 
L 211.233372 284.430145 
L 223.392738 287.440192 
L 231.904246 289.321922 
L 239.199721 290.719694 
L 246.495437 291.897335 
L 253.791153 292.855036 
L 261.086628 293.607908 
L 269.598136 294.260709 
L 279.325677 294.766863 
L 290.269011 295.113284 
L 304.860202 295.345367 
L 327.963142 295.463133 
L 397.27124 295.487973 
L 398.487273 295.487977 
L 398.487273 295.487977 
" clip-path="url(#p938fb3fabf)" style="fill: none; stroke-dasharray: 5.55,2.4; stroke-dashoffset: 0; stroke: #0000ff; stroke-width: 1.5"/>
   </g>
   <g id="line2d_24">
    <path d="M 73.832727 295.488 
L 175.971306 295.382924 
L 188.130672 295.140803 
L 196.642181 294.746885 
L 202.721864 294.26354 
L 207.585514 293.701137 
L 212.449164 292.934802 
L 217.313055 291.915836 
L 220.960913 290.955817 
L 224.60853 289.805648 
L 228.256388 288.447452 
L 231.904246 286.867436 
L 235.552104 285.057243 
L 239.199721 283.01583 
L 242.847579 280.75048 
L 247.71147 277.41379 
L 252.57512 273.784171 
L 261.086628 267.069737 
L 267.166311 262.371069 
L 270.814169 259.756044 
L 274.462027 257.388924 
L 278.109644 255.343903 
L 280.54171 254.192652 
L 282.973535 253.231755 
L 285.405361 252.47573 
L 287.837186 251.936261 
L 290.269011 251.62177 
L 292.700836 251.537197 
L 295.132902 251.683903 
L 297.564727 252.059547 
L 299.996552 252.658238 
L 302.428377 253.470651 
L 304.860202 254.484275 
L 307.292268 255.683858 
L 310.939885 257.791788 
L 314.587743 260.208965 
L 319.451634 263.782725 
L 326.747109 269.522633 
L 334.042825 275.208435 
L 338.906475 278.736182 
L 343.770125 281.938852 
L 347.417983 284.091012 
L 351.065841 286.01431 
L 354.713699 287.705858 
L 358.361316 289.170631 
L 362.009174 290.420212 
L 365.657032 291.47054 
L 370.520682 292.594272 
L 375.384573 293.447189 
L 380.248224 294.078706 
L 386.327907 294.62676 
L 393.623623 295.031345 
L 398.487273 295.196619 
L 398.487273 295.196619 
" clip-path="url(#p938fb3fabf)" style="fill: none; stroke-dasharray: 5.55,2.4; stroke-dashoffset: 0; stroke: #0000ff; stroke-width: 1.5"/>
   </g>
   <g id="line2d_25">
    <path d="M 73.832727 295.488 
L 353.497666 295.406663 
L 357.145524 295.196207 
L 359.577349 294.882774 
L 362.009174 294.349436 
L 364.440999 293.545349 
L 366.873065 292.481605 
L 371.736715 290.116459 
L 374.16854 289.286149 
L 375.384573 289.0636 
L 376.600366 288.993569 
L 377.816399 289.081086 
L 379.032431 289.319865 
L 381.464257 290.174703 
L 385.111874 291.950618 
L 387.54394 293.100911 
L 389.975765 294.026942 
L 392.40759 294.67692 
L 394.839415 295.079627 
L 398.487273 295.366515 
L 398.487273 295.366515 
" clip-path="url(#p938fb3fabf)" style="fill: none; stroke-dasharray: 5.55,2.4; stroke-dashoffset: 0; stroke: #0000ff; stroke-width: 1.5"/>
   </g>
   <g id="patch_3">
    <path d="M 57.6 307.584 
L 57.6 41.472 
" style="fill: none; stroke: #000000; stroke-width: 0.8; stroke-linejoin: miter; stroke-linecap: square"/>
   </g>
   <g id="patch_4">
    <path d="M 414.72 307.584 
L 414.72 41.472 
" style="fill: none; stroke: #000000; stroke-width: 0.8; stroke-linejoin: miter; stroke-linecap: square"/>
   </g>
   <g id="patch_5">
    <path d="M 57.6 307.584 
L 414.72 307.584 
" style="fill: none; stroke: #000000; stroke-width: 0.8; stroke-linejoin: miter; stroke-linecap: square"/>
   </g>
   <g id="patch_6">
    <path d="M 57.6 41.472 
L 414.72 41.472 
" style="fill: none; stroke: #000000; stroke-width: 0.8; stroke-linejoin: miter; stroke-linecap: square"/>
   </g>
   <g id="legend_1">
    <g id="patch_7">
     <path d="M 66 103.91325 
L 222.4875 103.91325 
Q 224.8875 103.91325 224.8875 101.51325 
L 224.8875 49.872 
Q 224.8875 47.472 222.4875 47.472 
L 66 47.472 
Q 63.6 47.472 63.6 49.872 
L 63.6 101.51325 
Q 63.6 103.91325 66 103.91325 
z
" style="fill: #ffffff; opacity: 0.8; stroke: #cccccc; stroke-linejoin: miter"/>
    </g>
    <g id="line2d_26">
     <path d="M 68.4 57.190125 
L 80.4 57.190125 
L 92.4 57.190125 
" style="fill: none; stroke: #1f77b4; stroke-width: 1.5; stroke-linecap: square"/>
    </g>
    <g id="text_18">
     <!-- experiment -->
     <g transform="translate(102 61.390125) scale(0.12 -0.12)">
      <defs>
       <path id="DejaVuSans-65" d="M 3597 1894 
L 3597 1613 
L 953 1613 
Q 991 1019 1311 708 
Q 1631 397 2203 397 
Q 2534 397 2845 478 
Q 3156 559 3463 722 
L 3463 178 
Q 3153 47 2828 -22 
Q 2503 -91 2169 -91 
Q 1331 -91 842 396 
Q 353 884 353 1716 
Q 353 2575 817 3079 
Q 1281 3584 2069 3584 
Q 2775 3584 3186 3129 
Q 3597 2675 3597 1894 
z
M 3022 2063 
Q 3016 2534 2758 2815 
Q 2500 3097 2075 3097 
Q 1594 3097 1305 2825 
Q 1016 2553 972 2059 
L 3022 2063 
z
" transform="scale(0.015625)"/>
       <path id="DejaVuSans-78" d="M 3513 3500 
L 2247 1797 
L 3578 0 
L 2900 0 
L 1881 1375 
L 863 0 
L 184 0 
L 1544 1831 
L 300 3500 
L 978 3500 
L 1906 2253 
L 2834 3500 
L 3513 3500 
z
" transform="scale(0.015625)"/>
       <path id="DejaVuSans-70" d="M 1159 525 
L 1159 -1331 
L 581 -1331 
L 581 3500 
L 1159 3500 
L 1159 2969 
Q 1341 3281 1617 3432 
Q 1894 3584 2278 3584 
Q 2916 3584 3314 3078 
Q 3713 2572 3713 1747 
Q 3713 922 3314 415 
Q 2916 -91 2278 -91 
Q 1894 -91 1617 61 
Q 1341 213 1159 525 
z
M 3116 1747 
Q 3116 2381 2855 2742 
Q 2594 3103 2138 3103 
Q 1681 3103 1420 2742 
Q 1159 2381 1159 1747 
Q 1159 1113 1420 752 
Q 1681 391 2138 391 
Q 2594 391 2855 752 
Q 3116 1113 3116 1747 
z
" transform="scale(0.015625)"/>
       <path id="DejaVuSans-72" d="M 2631 2963 
Q 2534 3019 2420 3045 
Q 2306 3072 2169 3072 
Q 1681 3072 1420 2755 
Q 1159 2438 1159 1844 
L 1159 0 
L 581 0 
L 581 3500 
L 1159 3500 
L 1159 2956 
Q 1341 3275 1631 3429 
Q 1922 3584 2338 3584 
Q 2397 3584 2469 3576 
Q 2541 3569 2628 3553 
L 2631 2963 
z
" transform="scale(0.015625)"/>
       <path id="DejaVuSans-69" d="M 603 3500 
L 1178 3500 
L 1178 0 
L 603 0 
L 603 3500 
z
M 603 4863 
L 1178 4863 
L 1178 4134 
L 603 4134 
L 603 4863 
z
" transform="scale(0.015625)"/>
       <path id="DejaVuSans-6d" d="M 3328 2828 
Q 3544 3216 3844 3400 
Q 4144 3584 4550 3584 
Q 5097 3584 5394 3201 
Q 5691 2819 5691 2113 
L 5691 0 
L 5113 0 
L 5113 2094 
Q 5113 2597 4934 2840 
Q 4756 3084 4391 3084 
Q 3944 3084 3684 2787 
Q 3425 2491 3425 1978 
L 3425 0 
L 2847 0 
L 2847 2094 
Q 2847 2600 2669 2842 
Q 2491 3084 2119 3084 
Q 1678 3084 1418 2786 
Q 1159 2488 1159 1978 
L 1159 0 
L 581 0 
L 581 3500 
L 1159 3500 
L 1159 2956 
Q 1356 3278 1631 3431 
Q 1906 3584 2284 3584 
Q 2666 3584 2933 3390 
Q 3200 3197 3328 2828 
z
" transform="scale(0.015625)"/>
       <path id="DejaVuSans-6e" d="M 3513 2113 
L 3513 0 
L 2938 0 
L 2938 2094 
Q 2938 2591 2744 2837 
Q 2550 3084 2163 3084 
Q 1697 3084 1428 2787 
Q 1159 2491 1159 1978 
L 1159 0 
L 581 0 
L 581 3500 
L 1159 3500 
L 1159 2956 
Q 1366 3272 1645 3428 
Q 1925 3584 2291 3584 
Q 2894 3584 3203 3211 
Q 3513 2838 3513 2113 
z
" transform="scale(0.015625)"/>
       <path id="DejaVuSans-74" d="M 1172 4494 
L 1172 3500 
L 2356 3500 
L 2356 3053 
L 1172 3053 
L 1172 1153 
Q 1172 725 1289 603 
Q 1406 481 1766 481 
L 2356 481 
L 2356 0 
L 1766 0 
Q 1100 0 847 248 
Q 594 497 594 1153 
L 594 3053 
L 172 3053 
L 172 3500 
L 594 3500 
L 594 4494 
L 1172 4494 
z
" transform="scale(0.015625)"/>
      </defs>
      <use xlink:href="#DejaVuSans-65"/>
      <use xlink:href="#DejaVuSans-78" x="59.773438"/>
      <use xlink:href="#DejaVuSans-70" x="118.953125"/>
      <use xlink:href="#DejaVuSans-65" x="182.429688"/>
      <use xlink:href="#DejaVuSans-72" x="243.953125"/>
      <use xlink:href="#DejaVuSans-69" x="285.066406"/>
      <use xlink:href="#DejaVuSans-6d" x="312.849609"/>
      <use xlink:href="#DejaVuSans-65" x="410.261719"/>
      <use xlink:href="#DejaVuSans-6e" x="471.785156"/>
      <use xlink:href="#DejaVuSans-74" x="535.164062"/>
     </g>
    </g>
    <g id="line2d_27">
     <path d="M 68.4 74.803875 
L 80.4 74.803875 
L 92.4 74.803875 
" style="fill: none; stroke: #ff7f0e; stroke-width: 1.5; stroke-linecap: square"/>
    </g>
    <g id="text_19">
     <!-- WPEM fitting profile -->
     <g transform="translate(102 79.003875) scale(0.12 -0.12)">
      <defs>
       <path id="DejaVuSans-57" d="M 213 4666 
L 850 4666 
L 1831 722 
L 2809 4666 
L 3519 4666 
L 4500 722 
L 5478 4666 
L 6119 4666 
L 4947 0 
L 4153 0 
L 3169 4050 
L 2175 0 
L 1381 0 
L 213 4666 
z
" transform="scale(0.015625)"/>
       <path id="DejaVuSans-50" d="M 1259 4147 
L 1259 2394 
L 2053 2394 
Q 2494 2394 2734 2622 
Q 2975 2850 2975 3272 
Q 2975 3691 2734 3919 
Q 2494 4147 2053 4147 
L 1259 4147 
z
M 628 4666 
L 2053 4666 
Q 2838 4666 3239 4311 
Q 3641 3956 3641 3272 
Q 3641 2581 3239 2228 
Q 2838 1875 2053 1875 
L 1259 1875 
L 1259 0 
L 628 0 
L 628 4666 
z
" transform="scale(0.015625)"/>
       <path id="DejaVuSans-45" d="M 628 4666 
L 3578 4666 
L 3578 4134 
L 1259 4134 
L 1259 2753 
L 3481 2753 
L 3481 2222 
L 1259 2222 
L 1259 531 
L 3634 531 
L 3634 0 
L 628 0 
L 628 4666 
z
" transform="scale(0.015625)"/>
       <path id="DejaVuSans-4d" d="M 628 4666 
L 1569 4666 
L 2759 1491 
L 3956 4666 
L 4897 4666 
L 4897 0 
L 4281 0 
L 4281 4097 
L 3078 897 
L 2444 897 
L 1241 4097 
L 1241 0 
L 628 0 
L 628 4666 
z
" transform="scale(0.015625)"/>
       <path id="DejaVuSans-66" d="M 2375 4863 
L 2375 4384 
L 1825 4384 
Q 1516 4384 1395 4259 
Q 1275 4134 1275 3809 
L 1275 3500 
L 2222 3500 
L 2222 3053 
L 1275 3053 
L 1275 0 
L 697 0 
L 697 3053 
L 147 3053 
L 147 3500 
L 697 3500 
L 697 3744 
Q 697 4328 969 4595 
Q 1241 4863 1831 4863 
L 2375 4863 
z
" transform="scale(0.015625)"/>
       <path id="DejaVuSans-67" d="M 2906 1791 
Q 2906 2416 2648 2759 
Q 2391 3103 1925 3103 
Q 1463 3103 1205 2759 
Q 947 2416 947 1791 
Q 947 1169 1205 825 
Q 1463 481 1925 481 
Q 2391 481 2648 825 
Q 2906 1169 2906 1791 
z
M 3481 434 
Q 3481 -459 3084 -895 
Q 2688 -1331 1869 -1331 
Q 1566 -1331 1297 -1286 
Q 1028 -1241 775 -1147 
L 775 -588 
Q 1028 -725 1275 -790 
Q 1522 -856 1778 -856 
Q 2344 -856 2625 -561 
Q 2906 -266 2906 331 
L 2906 616 
Q 2728 306 2450 153 
Q 2172 0 1784 0 
Q 1141 0 747 490 
Q 353 981 353 1791 
Q 353 2603 747 3093 
Q 1141 3584 1784 3584 
Q 2172 3584 2450 3431 
Q 2728 3278 2906 2969 
L 2906 3500 
L 3481 3500 
L 3481 434 
z
" transform="scale(0.015625)"/>
       <path id="DejaVuSans-6f" d="M 1959 3097 
Q 1497 3097 1228 2736 
Q 959 2375 959 1747 
Q 959 1119 1226 758 
Q 1494 397 1959 397 
Q 2419 397 2687 759 
Q 2956 1122 2956 1747 
Q 2956 2369 2687 2733 
Q 2419 3097 1959 3097 
z
M 1959 3584 
Q 2709 3584 3137 3096 
Q 3566 2609 3566 1747 
Q 3566 888 3137 398 
Q 2709 -91 1959 -91 
Q 1206 -91 779 398 
Q 353 888 353 1747 
Q 353 2609 779 3096 
Q 1206 3584 1959 3584 
z
" transform="scale(0.015625)"/>
       <path id="DejaVuSans-6c" d="M 603 4863 
L 1178 4863 
L 1178 0 
L 603 0 
L 603 4863 
z
" transform="scale(0.015625)"/>
      </defs>
      <use xlink:href="#DejaVuSans-57"/>
      <use xlink:href="#DejaVuSans-50" x="98.876953"/>
      <use xlink:href="#DejaVuSans-45" x="159.179688"/>
      <use xlink:href="#DejaVuSans-4d" x="222.363281"/>
      <use xlink:href="#DejaVuSans-20" x="308.642578"/>
      <use xlink:href="#DejaVuSans-66" x="340.429688"/>
      <use xlink:href="#DejaVuSans-69" x="375.634766"/>
      <use xlink:href="#DejaVuSans-74" x="403.417969"/>
      <use xlink:href="#DejaVuSans-74" x="442.626953"/>
      <use xlink:href="#DejaVuSans-69" x="481.835938"/>
      <use xlink:href="#DejaVuSans-6e" x="509.619141"/>
      <use xlink:href="#DejaVuSans-67" x="572.998047"/>
      <use xlink:href="#DejaVuSans-20" x="636.474609"/>
      <use xlink:href="#DejaVuSans-70" x="668.261719"/>
      <use xlink:href="#DejaVuSans-72" x="731.738281"/>
      <use xlink:href="#DejaVuSans-6f" x="770.601562"/>
      <use xlink:href="#DejaVuSans-66" x="831.783203"/>
      <use xlink:href="#DejaVuSans-69" x="866.988281"/>
      <use xlink:href="#DejaVuSans-6c" x="894.771484"/>
      <use xlink:href="#DejaVuSans-65" x="922.554688"/>
     </g>
    </g>
    <g id="line2d_28">
     <path d="M 68.4 92.417625 
L 80.4 92.417625 
L 92.4 92.417625 
" style="fill: none; stroke-dasharray: 9.25,4; stroke-dashoffset: 0; stroke: #000000; stroke-width: 2.5"/>
    </g>
    <g id="text_20">
     <!-- Amorphous profile -->
     <g transform="translate(102 96.617625) scale(0.12 -0.12)">
      <defs>
       <path id="DejaVuSans-41" d="M 2188 4044 
L 1331 1722 
L 3047 1722 
L 2188 4044 
z
M 1831 4666 
L 2547 4666 
L 4325 0 
L 3669 0 
L 3244 1197 
L 1141 1197 
L 716 0 
L 50 0 
L 1831 4666 
z
" transform="scale(0.015625)"/>
       <path id="DejaVuSans-68" d="M 3513 2113 
L 3513 0 
L 2938 0 
L 2938 2094 
Q 2938 2591 2744 2837 
Q 2550 3084 2163 3084 
Q 1697 3084 1428 2787 
Q 1159 2491 1159 1978 
L 1159 0 
L 581 0 
L 581 4863 
L 1159 4863 
L 1159 2956 
Q 1366 3272 1645 3428 
Q 1925 3584 2291 3584 
Q 2894 3584 3203 3211 
Q 3513 2838 3513 2113 
z
" transform="scale(0.015625)"/>
       <path id="DejaVuSans-73" d="M 2834 3397 
L 2834 2853 
Q 2591 2978 2328 3040 
Q 2066 3103 1784 3103 
Q 1356 3103 1142 2972 
Q 928 2841 928 2578 
Q 928 2378 1081 2264 
Q 1234 2150 1697 2047 
L 1894 2003 
Q 2506 1872 2764 1633 
Q 3022 1394 3022 966 
Q 3022 478 2636 193 
Q 2250 -91 1575 -91 
Q 1294 -91 989 -36 
Q 684 19 347 128 
L 347 722 
Q 666 556 975 473 
Q 1284 391 1588 391 
Q 1994 391 2212 530 
Q 2431 669 2431 922 
Q 2431 1156 2273 1281 
Q 2116 1406 1581 1522 
L 1381 1569 
Q 847 1681 609 1914 
Q 372 2147 372 2553 
Q 372 3047 722 3315 
Q 1072 3584 1716 3584 
Q 2034 3584 2315 3537 
Q 2597 3491 2834 3397 
z
" transform="scale(0.015625)"/>
      </defs>
      <use xlink:href="#DejaVuSans-41"/>
      <use xlink:href="#DejaVuSans-6d" x="68.408203"/>
      <use xlink:href="#DejaVuSans-6f" x="165.820312"/>
      <use xlink:href="#DejaVuSans-72" x="227.001953"/>
      <use xlink:href="#DejaVuSans-70" x="268.115234"/>
      <use xlink:href="#DejaVuSans-68" x="331.591797"/>
      <use xlink:href="#DejaVuSans-6f" x="394.970703"/>
      <use xlink:href="#DejaVuSans-75" x="456.152344"/>
      <use xlink:href="#DejaVuSans-73" x="519.53125"/>
      <use xlink:href="#DejaVuSans-20" x="571.630859"/>
      <use xlink:href="#DejaVuSans-70" x="603.417969"/>
      <use xlink:href="#DejaVuSans-72" x="666.894531"/>
      <use xlink:href="#DejaVuSans-6f" x="705.757812"/>
      <use xlink:href="#DejaVuSans-66" x="766.939453"/>
      <use xlink:href="#DejaVuSans-69" x="802.144531"/>
      <use xlink:href="#DejaVuSans-6c" x="829.927734"/>
      <use xlink:href="#DejaVuSans-65" x="857.710938"/>
     </g>
    </g>
   </g>
  </g>
 </g>
 <defs>
  <clipPath id="p938fb3fabf">
   <rect x="57.6" y="41.472" width="357.12" height="266.112"/>
  </clipPath>
 </defs>
</svg>
